<svg id="drawing" xmlns="http://www.w3.org/2000/svg" version="1.1" xmlns:xlink="http://www.w3.org/1999/xlink" width="794" height="707" viewBox="-20 -20 794 707"><defs id="SvgjsDefs1134"><marker id="SvgjsMarker1152" markerWidth="16.23606797749979" markerHeight="10.550836550532098" refX="-1" refY="3.8990363547948754" viewBox="-1 -1.3763819204711738 16.23606797749979 10.550836550532098" orient="auto" markerUnits="userSpaceOnUse"><path id="SvgjsPath1153" d="M12 3.899036407470703L0 7.798072814941406V0Z " stroke="#323232" stroke-width="2" fill="#323232" transform="matrix(1,0,0,1,0,0)"></path></marker><marker id="SvgjsMarker1159" markerWidth="16.23606797749979" markerHeight="10.550836550532098" refX="-1" refY="3.8990363547948754" viewBox="-1 -1.3763819204711738 16.23606797749979 10.550836550532098" orient="auto" markerUnits="userSpaceOnUse"><path id="SvgjsPath1160" d="M12 3.899036407470703L0 7.798072814941406V0Z " stroke="#323232" stroke-width="2" fill="#323232" transform="matrix(1,0,0,1,0,0)"></path></marker><marker id="SvgjsMarker1170" markerWidth="16.23606797749979" markerHeight="10.550836550532098" refX="-1" refY="3.8990363547948754" viewBox="-1 -1.3763819204711738 16.23606797749979 10.550836550532098" orient="auto" markerUnits="userSpaceOnUse"><path id="SvgjsPath1171" d="M12 3.899036407470703L0 7.798072814941406V0Z " stroke="#323232" stroke-width="2" fill="#323232" transform="matrix(1,0,0,1,0,0)"></path></marker><marker id="SvgjsMarker1185" markerWidth="16.23606797749979" markerHeight="10.550836550532098" refX="-1" refY="3.8990363547948754" viewBox="-1 -1.3763819204711738 16.23606797749979 10.550836550532098" orient="auto" markerUnits="userSpaceOnUse"><path id="SvgjsPath1186" d="M12 3.899036407470703L0 7.798072814941406V0Z " stroke="#323232" stroke-width="2" fill="#323232" transform="matrix(1,0,0,1,0,0)"></path></marker><marker id="SvgjsMarker1192" markerWidth="16.23606797749979" markerHeight="10.550836550532098" refX="-1" refY="3.8990363547948754" viewBox="-1 -1.3763819204711738 16.23606797749979 10.550836550532098" orient="auto" markerUnits="userSpaceOnUse"><path id="SvgjsPath1193" d="M12 3.899036407470703L0 7.798072814941406V0Z " stroke="#323232" stroke-width="2" fill="#323232" transform="matrix(1,0,0,1,0,0)"></path></marker><marker id="SvgjsMarker1199" markerWidth="16.23606797749979" markerHeight="10.550836550532098" refX="-1" refY="3.8990363547948754" viewBox="-1 -1.3763819204711738 16.23606797749979 10.550836550532098" orient="auto" markerUnits="userSpaceOnUse"><path id="SvgjsPath1200" d="M12 3.899036407470703L0 7.798072814941406V0Z " stroke="#323232" stroke-width="2" fill="#323232" transform="matrix(1,0,0,1,0,0)"></path></marker><marker id="SvgjsMarker1210" markerWidth="16.23606797749979" markerHeight="10.550836550532098" refX="-1" refY="3.8990363547948754" viewBox="-1 -1.3763819204711738 16.23606797749979 10.550836550532098" orient="auto" markerUnits="userSpaceOnUse"><path id="SvgjsPath1211" d="M12 3.899036407470703L0 7.798072814941406V0Z " stroke="#323232" stroke-width="2" fill="#323232" transform="matrix(1,0,0,1,0,0)"></path></marker><marker id="SvgjsMarker1225" markerWidth="16.23606797749979" markerHeight="10.550836550532098" refX="-1" refY="3.8990363547948754" viewBox="-1 -1.3763819204711738 16.23606797749979 10.550836550532098" orient="auto" markerUnits="userSpaceOnUse"><path id="SvgjsPath1226" d="M12 3.899036407470703L0 7.798072814941406V0Z " stroke="#323232" stroke-width="2" fill="#323232" transform="matrix(1,0,0,1,0,0)"></path></marker><marker id="SvgjsMarker1236" markerWidth="16.23606797749979" markerHeight="10.550836550532098" refX="-1" refY="3.8990363547948754" viewBox="-1 -1.3763819204711738 16.23606797749979 10.550836550532098" orient="auto" markerUnits="userSpaceOnUse"><path id="SvgjsPath1237" d="M12 3.899036407470703L0 7.798072814941406V0Z " stroke="#323232" stroke-width="2" fill="#323232" transform="matrix(1,0,0,1,0,0)"></path></marker><marker id="SvgjsMarker1245" markerWidth="16.23606797749979" markerHeight="10.550836550532098" refX="-1" refY="3.8990363547948754" viewBox="-1 -1.3763819204711738 16.23606797749979 10.550836550532098" orient="auto" markerUnits="userSpaceOnUse"><path id="SvgjsPath1246" d="M12 3.899036407470703L0 7.798072814941406V0Z " stroke="#323232" stroke-width="2" fill="#323232" transform="matrix(1,0,0,1,0,0)"></path></marker><marker id="SvgjsMarker1256" markerWidth="16.23606797749979" markerHeight="10.550836550532098" refX="-1" refY="3.8990363547948754" viewBox="-1 -1.3763819204711738 16.23606797749979 10.550836550532098" orient="auto" markerUnits="userSpaceOnUse"><path id="SvgjsPath1257" d="M12 3.899036407470703L0 7.798072814941406V0Z " stroke="#323232" stroke-width="2" fill="#323232" transform="matrix(1,0,0,1,0,0)"></path></marker></defs><g id="SvgjsG1135"><path id="SvgjsPath1136" d="M-20 -20H774V687H-20V-20Z " fill-opacity="0" fill="none"></path><g id="SvgjsG1137"><g id="SvgjsG1138" transform="translate(127 161)" opacity="1"><path id="SvgjsPath1139" d="M0 0L191 0L191 35L0 35Z " stroke-dasharray="" stroke="#323232" stroke-width="2" fill="#66ff66" opacity="1"></path><g id="SvgjsG1140" transform="matrix(1 0 0 1 10 9.375)" fill="#ffffff"><text id="SvgjsText1141" font-family="微软雅黑,宋体" text-rendering="optimize-speed" fill="#000000" font-size="13" font-weight="normal" font-style="normal" text-anchor="middle" text-decoration="blink" x="85.5" y="11">getInitialState</text></g></g><g id="SvgjsG1142" transform="translate(127 244)" opacity="1"><path id="SvgjsPath1143" d="M0 0L191 0L191 35L0 35Z " stroke-dasharray="" stroke="#323232" stroke-width="2" fill="#66ff66" opacity="1"></path><g id="SvgjsG1144" transform="matrix(1 0 0 1 10 9.375)" fill="#ffffff"><text id="SvgjsText1145" font-family="微软雅黑,宋体" text-rendering="optimize-speed" fill="#000000" font-size="13" font-weight="normal" font-style="normal" text-anchor="middle" text-decoration="blink" x="85.5" y="11">getDefaultProps</text></g></g><g id="SvgjsG1146" transform="translate(127 339)" opacity="1"><path id="SvgjsPath1147" d="M0 0L191 0L191 34L0 34Z " stroke-dasharray="" stroke="#323232" stroke-width="2" fill="#66ff66" opacity="1"></path><g id="SvgjsG1148" transform="matrix(1 0 0 1 10 8.875)" fill="#ffffff"><text id="SvgjsText1149" font-family="微软雅黑,宋体" text-rendering="optimize-speed" fill="#000000" font-size="13" font-weight="normal" font-style="normal" text-anchor="middle" text-decoration="blink" x="85.5" y="11">componentWillMount</text></g></g><g id="SvgjsG1150"><path id="SvgjsPath1151" d="M222.5 196C222.5 215.1999969482422 222.5 224.8000030517578 222.5 228.76393127441406 " stroke-dasharray="" stroke="#323232" stroke-width="2" fill="none" marker-end="url(#SvgjsMarker1152)"></path><g id="SvgjsG1154" transform="matrix(1 0 0 1 222.5 209.97049150281254)" fill="#ffffff"><path id="SvgjsPath1155" d="M0 0H0V0H0V0Z " fill="#ffffff" transform="translate(0 0)"></path><text id="SvgjsText1156" font-family="Microsoft Yahei,宋体" text-rendering="optimize-speed" fill="#000000" font-size="13" font-weight="0" font-style="" text-anchor="middle" text-decoration="" x="0" y="0"></text></g></g><g id="SvgjsG1157"><path id="SvgjsPath1158" d="M222.5 279C222.5 303 222.5 315 222.5 323.7639465332031 " stroke-dasharray="" stroke="#323232" stroke-width="2" fill="none" marker-end="url(#SvgjsMarker1159)"></path><g id="SvgjsG1161" transform="matrix(1 0 0 1 222.5 298.97049150281254)" fill="#ffffff"><path id="SvgjsPath1162" d="M0 0H0V0H0V0Z " fill="#ffffff" transform="translate(0 0)"></path><text id="SvgjsText1163" font-family="Microsoft Yahei,宋体" text-rendering="optimize-speed" fill="#000000" font-size="13" font-weight="0" font-style="" text-anchor="middle" text-decoration="" x="0" y="0"></text></g></g><g id="SvgjsG1164" transform="translate(129 458)" opacity="1"><path id="SvgjsPath1165" d="M0 0L625 0L625 37L0 37Z " stroke-dasharray="" stroke="#323232" stroke-width="2" fill="#ffffff" opacity="1"></path><g id="SvgjsG1166" transform="matrix(1 0 0 1 10 10.375)" fill="#ffffff"><text id="SvgjsText1167" font-family="微软雅黑,宋体" text-rendering="optimize-speed" fill="#000000" font-size="13" font-weight="normal" font-style="normal" text-anchor="middle" text-decoration="blink" x="302.5" y="11">render</text></g></g><g id="SvgjsG1168"><path id="SvgjsPath1169" d="M222.5 373C222.5 466.966796875 441.5 364.033203125 441.5 442.7639465332031 " stroke-dasharray="" stroke="#323232" stroke-width="2" fill="none" marker-end="url(#SvgjsMarker1170)"></path><g id="SvgjsG1172" transform="matrix(1 0 0 1 332 405.47049150281254)" fill="#ffffff"><path id="SvgjsPath1173" d="M0 0H0V0H0V0Z " fill="#ffffff" transform="translate(0 0)"></path><text id="SvgjsText1174" font-family="Microsoft Yahei,宋体" text-rendering="optimize-speed" fill="#000000" font-size="13" font-weight="0" font-style="" text-anchor="middle" text-decoration="" x="0" y="0"></text></g></g><g id="SvgjsG1175" transform="translate(345 564)" opacity="1"><path id="SvgjsPath1176" d="M0 0L409 0L409 32L0 32Z " stroke-dasharray="" stroke="#323232" stroke-width="2" fill="#ffffff" opacity="1"></path><g id="SvgjsG1177" transform="matrix(1 0 0 1 10 7.875)" fill="#ffffff"><text id="SvgjsText1178" font-family="微软雅黑,宋体" text-rendering="optimize-speed" fill="#000000" font-size="13" font-weight="normal" font-style="normal" text-anchor="middle" text-decoration="blink" x="194.5" y="11">componentDidUpdate</text></g></g><g id="SvgjsG1179" transform="translate(339 244)" opacity="1"><path id="SvgjsPath1180" d="M0 0L415 0L415 35L0 35Z " stroke-dasharray="" stroke="#323232" stroke-width="2" fill="#ffffff" opacity="1"></path><g id="SvgjsG1181" transform="matrix(1 0 0 1 10 9.375)" fill="#ffffff"><text id="SvgjsText1182" font-family="微软雅黑,宋体" text-rendering="optimize-speed" fill="#000000" font-size="13" font-weight="normal" font-style="normal" text-anchor="middle" text-decoration="blink" x="197.5" y="11">shouldComponentUpdate</text></g></g><g id="SvgjsG1183"><path id="SvgjsPath1184" d="M546.5 279C546.5 303.0133361816406 548.5 314.9866638183594 548.5 323.7639465332031 " stroke-dasharray="" stroke="#323232" stroke-width="2" fill="none" marker-end="url(#SvgjsMarker1185)"></path><g id="SvgjsG1187" transform="matrix(1 0 0 1 547.5 298.97049150281254)" fill="#ffffff"><path id="SvgjsPath1188" d="M0 0H0V0H0V0Z " fill="#ffffff" transform="translate(0 0)"></path><text id="SvgjsText1189" font-family="Microsoft Yahei,宋体" text-rendering="optimize-speed" fill="#000000" font-size="13" font-weight="0" font-style="" text-anchor="middle" text-decoration="" x="0" y="0"></text></g></g><g id="SvgjsG1190"><path id="SvgjsPath1191" d="M548.5 373C548.5 427.6611328125 441.5 403.3388671875 441.5 442.7639465332031 " stroke-dasharray="" stroke="#323232" stroke-width="2" fill="none" marker-end="url(#SvgjsMarker1192)"></path><g id="SvgjsG1194" transform="matrix(1 0 0 1 495 405.47049150281254)" fill="#ffffff"><path id="SvgjsPath1195" d="M0 0H0V0H0V0Z " fill="#ffffff" transform="translate(0 0)"></path><text id="SvgjsText1196" font-family="Microsoft Yahei,宋体" text-rendering="optimize-speed" fill="#000000" font-size="13" font-weight="0" font-style="" text-anchor="middle" text-decoration="" x="0" y="0"></text></g></g><g id="SvgjsG1197"><path id="SvgjsPath1198" d="M441.5 495C441.5 546.2640380859375 549.5 512.7359619140625 549.5 548.763916015625 " stroke-dasharray="" stroke="#323232" stroke-width="2" fill="none" marker-end="url(#SvgjsMarker1199)"></path><g id="SvgjsG1201" transform="matrix(1 0 0 1 495.5 519.4704915028125)" fill="#ffffff"><path id="SvgjsPath1202" d="M0 0H0V0H0V0Z " fill="#ffffff" transform="translate(0 0)"></path><text id="SvgjsText1203" font-family="Microsoft Yahei,宋体" text-rendering="optimize-speed" fill="#000000" font-size="13" font-weight="0" font-style="" text-anchor="middle" text-decoration="" x="0" y="0"></text></g></g><g id="SvgjsG1204" transform="translate(129 564)" opacity="1"><path id="SvgjsPath1205" d="M0 0L187 0L187 32L0 32Z " stroke-dasharray="" stroke="#323232" stroke-width="2" fill="#b3ff66" opacity="1"></path><g id="SvgjsG1206" transform="matrix(1 0 0 1 10 7.875)" fill="#ffffff"><text id="SvgjsText1207" font-family="微软雅黑,宋体" text-rendering="optimize-speed" fill="#000000" font-size="13" font-weight="normal" font-style="normal" text-anchor="middle" text-decoration="blink" x="83.5" y="11">componentDidMount</text></g></g><g id="SvgjsG1208"><path id="SvgjsPath1209" d="M441.5 495C441.5 586.8450927734375 222.5 472.1549072265625 222.5 548.763916015625 " stroke-dasharray="" stroke="#323232" stroke-width="2" fill="none" marker-end="url(#SvgjsMarker1210)"></path><g id="SvgjsG1212" transform="matrix(1 0 0 1 332 519.4704915028125)" fill="#ffffff"><path id="SvgjsPath1213" d="M0 0H0V0H0V0Z " fill="#ffffff" transform="translate(0 0)"></path><text id="SvgjsText1214" font-family="Microsoft Yahei,宋体" text-rendering="optimize-speed" fill="#000000" font-size="13" font-weight="0" font-style="" text-anchor="middle" text-decoration="" x="0" y="0"></text></g></g><g id="SvgjsG1215" transform="translate(343 339)" opacity="1"><path id="SvgjsPath1216" d="M0 0L411 0L411 34L0 34Z " stroke-dasharray="" stroke="#323232" stroke-width="2" fill="#ffffff" opacity="1"></path><g id="SvgjsG1217" transform="matrix(1 0 0 1 10 8.875)" fill="#ffffff"><text id="SvgjsText1218" font-family="微软雅黑,宋体" text-rendering="optimize-speed" fill="#000000" font-size="13" font-weight="normal" font-style="normal" text-anchor="middle" text-decoration="blink" x="195.5" y="11">componentWillUpdate</text></g></g><g id="SvgjsG1219" transform="translate(551 161)" opacity="1"><path id="SvgjsPath1220" d="M0 0L203 0L203 35L0 35Z " stroke-dasharray="" stroke="#323232" stroke-width="2" fill="#ffff66" opacity="1"></path><g id="SvgjsG1221" transform="matrix(1 0 0 1 10 9.375)" fill="#ffffff"><text id="SvgjsText1222" font-family="微软雅黑,宋体" text-rendering="optimize-speed" fill="#000000" font-size="13" font-weight="normal" font-style="normal" text-anchor="middle" text-decoration="blink" x="91.5" y="11">componentWillReceiveProps</text></g></g><g id="SvgjsG1223"><path id="SvgjsPath1224" d="M652.5 196C652.5 242.5446014404297 546.5 197.4553985595703 546.5 228.76393127441406 " stroke-dasharray="" stroke="#323232" stroke-width="2" fill="none" marker-end="url(#SvgjsMarker1225)"></path><g id="SvgjsG1227" transform="matrix(1 0 0 1 599.5 209.97049150281254)" fill="#ffffff"><path id="SvgjsPath1228" d="M0 0H0V0H0V0Z " fill="#ffffff" transform="translate(0 0)"></path><text id="SvgjsText1229" font-family="Microsoft Yahei,宋体" text-rendering="optimize-speed" fill="#000000" font-size="13" font-weight="0" font-style="" text-anchor="middle" text-decoration="" x="0" y="0"></text></g></g><g id="SvgjsG1230" transform="translate(202.5 83)" opacity="1"><path id="SvgjsPath1231" d="M0 20C0 -6.666666507720947 40 -6.666666507720947 40 20C40 46.66666793823242 0 46.66666793823242 0 20Z " stroke-dasharray="" stroke="#323232" stroke-width="2" fill="#66ff66" opacity="1"></path></g><g id="SvgjsG1232" transform="translate(421.5 83)" opacity="1"><path id="SvgjsPath1233" d="M0 20C0 -6.666666507720947 40 -6.666666507720947 40 20C40 46.66666793823242 0 46.66666793823242 0 20Z " stroke-dasharray="" stroke="#323232" stroke-width="2" fill="#66b2ff" opacity="1"></path></g><g id="SvgjsG1234"><path id="SvgjsPath1235" d="M441.5 123C441.5 187.0824432373047 546.5 179.9175567626953 546.5 228.76393127441406 " stroke-dasharray="" stroke="#323232" stroke-width="2" fill="none" marker-end="url(#SvgjsMarker1236)"></path><g id="SvgjsG1238" transform="matrix(1 0 0 1 494 173.47049150281254)" fill="#ffffff"><path id="SvgjsPath1239" d="M0 0H0V0H0V0Z " fill="#ffffff" transform="translate(0 0)"></path><text id="SvgjsText1240" font-family="Microsoft Yahei,宋体" text-rendering="optimize-speed" fill="#000000" font-size="13" font-weight="0" font-style="" text-anchor="middle" text-decoration="" x="0" y="0"></text></g></g><g id="SvgjsG1241" transform="translate(632.5 83)" opacity="1"><path id="SvgjsPath1242" d="M0 20C0 -6.666666507720947 40 -6.666666507720947 40 20C40 46.66666793823242 0 46.66666793823242 0 20Z " stroke-dasharray="" stroke="#323232" stroke-width="2" fill="#ffff66" opacity="1"></path></g><g id="SvgjsG1243"><path id="SvgjsPath1244" d="M652.5 123L652.5 142L652.5 142L652.5 145.76393127441406 " stroke-dasharray="" stroke="#323232" stroke-width="2" fill="none" marker-end="url(#SvgjsMarker1245)"></path><g id="SvgjsG1247" transform="matrix(1 0 0 1 652.5 126.25696601125009)" fill="#ffffff"><path id="SvgjsPath1248" d="M0 0H0V0H0V0Z " fill="#ffffff" transform="translate(0 0)"></path><text id="SvgjsText1249" font-family="Microsoft Yahei,宋体" text-rendering="optimize-speed" fill="#000000" font-size="13" font-weight="0" font-style="" text-anchor="middle" text-decoration="" x="0" y="0"></text></g></g><g id="SvgjsG1250" transform="translate(129 636)" opacity="1"><path id="SvgjsPath1251" d="M0 0L187 0L187 31L0 31Z " stroke-dasharray="" stroke="#323232" stroke-width="2" fill="#ffffff" opacity="1"></path><g id="SvgjsG1252" transform="matrix(1 0 0 1 10 7.375)" fill="#ffffff"><text id="SvgjsText1253" font-family="微软雅黑,宋体" text-rendering="optimize-speed" fill="#000000" font-size="13" font-weight="normal" font-style="normal" text-anchor="middle" text-decoration="blink" x="83.5" y="11">componentWillUnmount</text></g></g><g id="SvgjsG1254"><path id="SvgjsPath1255" d="M222.5 123L222.5 142L222.5 142L222.5 145.76393127441406 " stroke-dasharray="" stroke="#323232" stroke-width="2" fill="none" marker-end="url(#SvgjsMarker1256)"></path><g id="SvgjsG1258" transform="matrix(1 0 0 1 222.5 126.25696601125009)" fill="#ffffff"><path id="SvgjsPath1259" d="M0 0H0V0H0V0Z " fill="#ffffff" transform="translate(0 0)"></path><text id="SvgjsText1260" font-family="Microsoft Yahei,宋体" text-rendering="optimize-speed" fill="#000000" font-size="13" font-weight="0" font-style="" text-anchor="middle" text-decoration="" x="0" y="0"></text></g></g></g></g></svg>